HIERARCHY
ROOT ui
{
	 OFFSET 0 0 0
	 CHANNELS 3 XPosition YPosition Z Position
	 EndSite
	 {
	 OFFSET 0 -1 0
	 }
}
ROOT li
{
	 OFFSET 0 0 0
	 CHANNELS 3 XPosition YPosition Z Position
	 EndSite
	 {
	 OFFSET 0 -1 0
	 }
}
ROOT ul
{
	 OFFSET 0 0 0
	 CHANNELS 3 XPosition YPosition Z Position
	 EndSite
	 {
	 OFFSET 0 -1 0
	 }
}
ROOT ll
{
	 OFFSET 0 0 0
	 CHANNELS 3 XPosition YPosition Z Position
	 EndSite
	 {
	 OFFSET 0 -1 0
	 }
}
ROOT tt
{
	 OFFSET 0 0 0
	 CHANNELS 3 XPosition YPosition Z Position
	 EndSite
	 {
	 OFFSET 0 -1 0
	 }
}
ROOT tb
{
	 OFFSET 0 0 0
	 CHANNELS 3 XPosition YPosition Z Position
	 EndSite
	 {
	 OFFSET 0 -1 0
	 }
}
ROOT td
{
	 OFFSET 0 0 0
	 CHANNELS 3 XPosition YPosition Z Position
	 EndSite
	 {
	 OFFSET 0 -1 0
	 }
}
ROOT v
{
	 OFFSET 0 0 0
	 CHANNELS 3 XPosition YPosition Z Position
	 EndSite
	 {
	 OFFSET 0 -1 0
	 }
}
ROOT bn
{
	 OFFSET 0 0 0
	 CHANNELS 3 XPosition YPosition Z Position
	 EndSite
	 {
	 OFFSET 0 -1 0
	 }
}
MOTION
Frames: 29
Frame Time: 0.002
0.009200146675109863	0.0038773300647735594	0		0.5233208618164062	-2.4482470703125	0		-0.974810546875	0.23311070251464844	0		-0.46665704345703124	-2.439953369140625	0		1.6066275634765625	-1.0176640625	0		2.92166357421875	0.16778529357910157	0		4.477423828125	0.36291305541992186	0		5.9025390625	0.2658848876953125	0		-0.36095394897460936	5.878376953125	0		
0.0019416650533676148	-0.002933969020843506	0		0.49317422485351564	-2.449741455078125	0		-0.95491455078125	0.23791909790039062	0		-0.4318230590820312	-2.443336669921875	0		1.5953067626953126	-1.030393310546875	0		2.892189697265625	0.1453212127685547	0		4.478078125	0.35007290649414063	0		5.9072998046875	0.24530551147460938	0		-0.3763409423828125	5.8696669921875	0		
0.0017851020097732545	-0.002842233896255493	0		0.5169822998046875	-2.4549638671875	0		-0.97919287109375	0.22931993103027343	0		-0.5076979675292969	-2.424234375	0		1.5959766845703125	-1.044291748046875	0		2.92570654296875	0.12099955749511719	0		4.47872900390625	0.3362143249511719	0		5.8993447265625	0.24586067199707032	0		-0.37657861328125	5.86975341796875	0		
0.0016355079412460327	-0.0027501609325408937	0		0.4929276123046875	-2.449545654296875	0		-0.9393082885742188	0.23186599731445312	0		-0.4348420104980469	-2.426124755859375	0		1.6484451904296875	-1.0738897705078125	0		2.9383134765625	0.10294999694824218	0		4.47840185546875	0.32335467529296874	0		5.911419921875	0.25611297607421873	0		-0.24350743103027345	5.89005908203125	0		
0.0014907380342483521	-0.002654465913772583	0		0.50268017578125	-2.4585791015625	0		-1.0124349365234375	0.2339310302734375	0		-0.5218668823242187	-2.417869140625	0		1.6132047119140625	-1.0813125	0		2.930034912109375	0.09317598724365235	0		4.48925341796875	0.32333734130859376	0		5.90853125	0.26855819702148437	0		-0.39691082763671875	5.875201171875	0		
-0.004477290153503418	0.010527695655822754	0		0.4967242431640625	-2.44539453125	0		-0.966489013671875	0.240413330078125	0		-0.42495257568359374	-2.415066162109375	0		1.6677149658203125	-1.1079346923828124	0		2.934543701171875	0.06722896575927734	0		4.49992138671875	0.30931668090820313	0		5.918529296875	0.28922128295898436	0		-0.24386856079101563	5.8902548828125	0		
-0.0018473769426345826	-0.006396759033203125	0		0.49253402709960936	-2.449225341796875	0		-1.0076685180664062	0.2380738220214844	0		-0.49400335693359376	-2.408031005859375	0		1.65944189453125	-1.117708984375	0		2.972250732421875	0.05584247970581055	0		4.4916181640625	0.29754879760742187	0		5.918427734375	0.2894414367675781	0		-0.37730630493164063	5.87014892578125	0		
0.0010612540245056152	-0.002308681011199951	0		0.5183452758789062	-2.452444580078125	0		-0.9718295288085937	0.2367218017578125	0		-0.4330882568359375	-2.403718017578125	0		1.6631624755859375	-1.12763427734375	0		2.939881591796875	0.0393983154296875	0		4.503298828125	0.28451483154296875	0		5.91832470703125	0.289656494140625	0		-0.3774467163085938	5.87027783203125	0		
-0.012005488395690917	0.0040110030174255375	0		0.4662593688964844	-2.446605224609375	0		-0.9939346923828125	0.24016580200195312	0		-0.5350892333984375	-2.391206787109375	0		1.6745943603515625	-1.1586519775390625	0		2.94142578125	0.016508840560913087	0		4.50787060546875	0.2635791320800781	0		5.91525146484375	0.2692052001953125	0		-0.3775726318359375	5.87042529296875	0		
7.607179880142212E-4	-0.0019945770502090452	0		0.5050066223144531	-2.4529619140625	0		-0.9890323486328125	0.24427305603027344	0		-0.4833293762207031	-2.39673095703125	0		1.68033984375	-1.1655751953125	0		2.980962158203125	-0.006876562118530273	0		4.5126259765625	0.2566500549316406	0		5.92732373046875	0.2794112854003906	0		-0.2424430236816406	5.88778759765625	0		
0.007697511196136475	0.0051037812232971195	0		0.5000009155273437	-2.439708251953125	0		-0.9951187133789062	0.2495553436279297	0		-0.47944247436523435	-2.39158740234375	0		1.6781322021484375	-1.168371826171875	0		2.9897783203125	-0.008833272933959961	0		4.5183779296875	0.24971902465820311	0		5.920080078125	0.2798758850097656	0		-0.24450149536132812	5.89100927734375	0		
-0.009433721542358399	0.007552165031433106	0		0.5436039428710937	-2.455082763671875	0		-0.96333154296875	0.24536070251464845	0		-0.49255221557617185	-2.3851865234375	0		1.679594970703125	-1.1951976318359374	0		2.971284912109375	-0.0334085578918457	0		4.52596630859375	0.2307744140625	0		5.91265087890625	0.24748649597167968	0		-0.3778660583496094	5.87101806640625	0		
2.8234100341796873E-4	-0.0013300600051879884	0		0.49148321533203126	-2.448143798828125	0		-0.9954329833984376	0.25005799865722655	0		-0.4818786926269531	-2.39407373046875	0		1.7242730712890626	-1.20557958984375	0		2.994811279296875	-0.05653034591674805	0		4.52253955078125	0.2109871826171875	0		5.91984814453125	0.2803734436035156	0		-0.3779242248535156	5.87127587890625	0		
-0.0029352619647979735	-0.005006722927093506	0		0.5172194213867187	-2.451221923828125	0		-0.9955912475585937	0.25036384582519533	0		-0.5170550537109375	-2.390309326171875	0		1.684896240234375	-1.2188114013671876	0		3.020455078125	-0.07066585540771485	0		4.52320556640625	0.19815211486816406	0		5.91188427734375	0.2808786315917969	0		-0.377951416015625	5.87156689453125	0		
-0.0099235258102417	0.008401897430419922	0		0.46912197875976563	-2.44027587890625	0		-0.9866407470703125	0.25858670043945314	0		-0.5111959838867187	-2.383060302734375	0		1.7354625244140625	-1.236231689453125	0		3.001237060546875	-0.07418350982666015	0		4.531033203125	0.19722584533691406	0		5.91908935546875	0.31548410034179686	0		-0.3779414978027344	5.8718935546875	0		
0.024777101516723632	-0.0017205690145492554	0		0.5228267822265625	-2.443673095703125	0		-0.9867927856445312	0.25897161865234375	0		-0.5094168090820312	-2.3807197265625	0		1.7421611328125	-1.243039306640625	0		3.021692626953125	-0.10222422027587891	0		4.52962255859375	0.17842617797851562	0		5.91897265625	0.3157159118652344	0		-0.3778901672363281	5.87225634765625	0		
-3.6388400197029115E-4	8.430000161752104E-7	0		0.4925413208007812	-2.444905029296875	0		-0.9928701171875	0.2644783020019531	0		-0.4767460327148437	-2.385760986328125	0		1.736870361328125	-1.24866162109375	0		3.0365166015625	-0.10317276763916015	0		4.53926904296875	0.1634822998046875	0		5.91885888671875	0.31594085693359375	0		-0.3777962341308594	5.87265625	0		
0.01156466293334961	0.006255597114562988	0		0.5073235473632812	-2.44071484375	0		-0.9921317749023437	0.2559323272705078	0		-0.5119699096679687	-2.381843505859375	0		1.7374671630859375	-1.26233984375	0		3.0250478515625	-0.12575006866455077	0		4.5599462890625	0.1503957214355469	0		5.91874755859375	0.3161653137207031	0		-0.3776627197265625	5.87309326171875	0		
-0.003719160079956055	-0.0030859088897705078	0		0.4639931640625	-2.443700927734375	0		-0.987212890625	0.2603701477050781	0		-0.4674009704589844	-2.392976318359375	0		1.7372506103515626	-1.2619796142578126	0		3.049684814453125	-0.14079885864257813	0		4.550615234375	0.13672892761230468	0		5.9283701171875	0.27109225463867187	0		-0.24420896911621093	5.89374853515625	0		
-8.138099908828736E-4	0.0013604789972305297	0		0.49576904296875	-2.438679443359375	0		-0.98329248046875	0.26485943603515627	0		-0.5226688232421876	-2.39070751953125	0		1.75491748046875	-1.2698380126953126	0		3.08316796875	-0.16695051574707032	0		4.57026611328125	0.12168187713623047	0		5.9355771484375	0.30397283935546876	0		-0.36119985961914064	5.88185595703125	0		
-9.661719799041748E-4	0.0018819429874420166	0		0.4974959716796875	-2.4362158203125	0		-0.9843185424804688	0.27345355224609375	0		-0.4530418701171875	-2.3961181640625	0		1.75772900390625	-1.2664647216796876	0		3.064241455078125	-0.14935610961914061	0		4.56523193359375	0.12999403381347657	0		5.93546484375	0.30424859619140626	0		-0.24284121704101563	5.89277294921875	0		
-0.0011250250339508057	0.002436305046081543	0		0.49311386108398436	-2.44063720703125	0		-0.9944453735351563	0.2752084655761719	0		-0.4964453735351563	-2.401939453125	0		1.741657470703125	-1.2538013916015625	0		3.072629150390625	-0.1811173553466797	0		4.5728037109375	0.110150390625	0		5.93168359375	0.2873753662109375	0		-0.3759048156738281	5.87418505859375	0		
-0.004348482131958008	-9.355199933052063E-4	0		0.5167132568359375	-2.445416748046875	0		-0.9945955810546875	0.27585986328125	0		-0.4767456970214844	-2.39959912109375	0		1.7482947998046876	-1.261426513671875	0		3.092349853515625	-0.18801077270507813	0		4.57346142578125	0.09742310333251954	0		5.9315595703125	0.28771133422851564	0		-0.25654547119140625	5.88414013671875	0		
-0.004528425216674805	-3.190099895000458E-4	0		0.4904112548828125	-2.44147265625	0		-0.990701171875	0.280487548828125	0		-0.5031982727050781	-2.40658642578125	0		1.7590279541015625	-1.2610831298828125	0		3.128860107421875	-0.2091201477050781	0		4.5740927734375	0.08371516418457031	0		5.9272470703125	0.3055184631347656	0		-0.37449462890625	5.873423828125	0		
-0.004721333026885986	3.261669874191284E-4	0		0.49411578369140624	-2.435919189453125	0		-0.9668485107421875	0.2828651428222656	0		-0.4597620544433594	-2.4205224609375	0		1.7599705810546875	-1.244578125	0		3.117864013671875	-0.19354327392578125	0		4.581876953125	0.08192482757568359	0		5.93268115234375	0.28322457885742186	0		-0.2409768829345703	5.89422509765625	0		
-0.0018714079856872558	0.004955649852752686	0		0.49575869750976564	-2.43331201171875	0		-0.9679068603515625	0.2926212158203125	0		-0.5059861755371093	-2.40816845703125	0		1.75582861328125	-1.23297998046875	0		3.13923193359375	-0.22240797424316405	0		4.58349267578125	0.06923336029052735	0		5.926955078125	0.3063129577636719	0		-0.3730618896484375	5.8737802734375	0		
-0.005146529197692871	0.0016957379579544067	0		0.5432064819335938	-2.443333251953125	0		-0.9780882568359375	0.2945341491699219	0		-0.46764910888671873	-2.425984619140625	0		1.75551513671875	-1.2324176025390625	0		3.168978759765625	-0.22337718200683593	0		4.5791943359375	0.06363658142089844	0		5.93950048828125	0.2838001403808594	0		-0.3728309631347656	5.874505859375	0		
-4.3429899215698245E-4	-0.0016552759408950805	0		0.4908574523925781	-2.43691552734375	0		-0.9732384643554688	0.2992601318359375	0		-0.474158447265625	-2.431141357421875	0		1.751329345703125	-1.2217823486328125	0		3.13160595703125	-0.23138206481933593	0		4.57976904296875	0.04997705078125	0		5.93705859375	0.2618052978515625	0		-0.387732666015625	5.86547021484375	0		
-0.00561579704284668	0.003155296087265015	0		0.5163842163085938	-2.438590087890625	0		-0.9625975952148438	0.2899233093261719	0		-0.478671142578125	-2.4353046875	0		1.7560885009765625	-1.21426123046875	0		3.161329833984375	-0.23233372497558594	0		4.59623095703125	0.029093734741210936	0		5.9320224609375	0.28488775634765623	0		-0.23805484008789063	5.895099609375	0		
